<svg width=" 100%" height=" 100%" viewBox="0 0 907 90" fill="none" xmlns="http://www.w3.org/2000/svg">
                <path d="M0.254272 27.6701L0.416676 27.9845V27.4885L0.254272 27.6701Z" fill="currentColor"></path>
                <path d="M318.98 48.3549H358.744V36.0605H318.98V29.748H359.386V17.3861H302.688V67.9129H359.851V55.2746H318.98V48.3549Z" fill="currentColor"></path>
                <path d="M176.692 35.9188L168.166 35.7974C157.833 35.595 156.452 33.6123 156.452 31.4474C156.452 29.2827 157.346 27.0975 169.607 27.0975H170.703C183.994 27.0975 185.009 31.2453 185.354 33.1672H201.838V32.4928C201.838 24.8855 196.424 16.5363 172.402 16.5363H167.713C144.604 16.5363 140.097 24.4201 140.097 31.9667V32.5537C140.097 40.4442 145.896 46.8308 164.837 47.3905L173.559 47.5929C185.273 47.9368 186.856 49.7712 186.856 52.6848C186.856 55.5981 185.293 58.08 171.969 58.08H171.015C157.928 58.08 156.128 53.1299 155.959 50.0748H139.427V50.884C139.427 57.5404 142.553 68.9447 169.134 68.9447H173.83C199.321 68.9447 203.543 60.3864 203.543 52.0844V50.9919C203.543 40.8893 195.721 36.2627 176.692 35.9188Z" fill="currentColor"></path>
                <path d="M409.473 17.3861H388.894L380.775 33.3493L363.257 67.9331H379.396L383.984 58.6736H414.711L419.401 67.9196H436.588L418.041 33.3493L409.473 17.3861ZM389.646 47.2691L396.555 33.3493L399.046 28.325L401.65 33.3628L408.845 47.2828L389.646 47.2691Z" fill="currentColor"></path>
                <path d="M424.191 17.3861V31.4745H448.219V67.9129H464.095V31.4745H488.143V17.3861H424.191Z" fill="currentColor"></path>
                <path d="M290.613 17.3861L274.82 17.4198L283.028 33.3493L273.006 54.5259L252.739 17.3861L236.458 17.4198L245.424 34.7522L236.086 54.5259L215.711 17.3861H199.444L225.814 67.8994H245.56L253.836 50.8842L262.72 67.8994H282.487L299.262 33.3493L290.613 17.3861Z" fill="currentColor"></path>
                <path d="M85.0763 0H66.9481L52.5076 15.4508L44.0556 0H25.2371L0.41626 26.5381V27.0169L33.0799 86.7359H51.5128L65.7569 71.4876L74.1004 86.7359H93.2303L117.997 60.225L85.0763 0ZM43.21 72.8905L19.2619 29.1008L33.7905 13.5894L57.7315 57.3585L43.21 72.8905ZM84.4877 73.3625L60.5329 29.5865L75.0615 14.075L99.0093 57.8644L84.4877 73.3625Z" fill="currentColor"></path>
                <path d="M513.405 40.4688H540.778V43.7199H513.405V40.4688ZM513.84 64.4553H545.038V67.7786H510.157V17.2047H543.953V20.5281H513.84V64.4553Z" fill="white"></path>
                <path d="M581.797 68.14C578.041 68.14 574.552 67.5138 571.326 66.2615C568.147 64.961 565.381 63.1548 563.021 60.8428C560.661 58.531 558.834 55.8335 557.533 52.751C556.233 49.6202 555.582 46.2004 555.582 42.4917C555.582 38.783 556.233 35.3873 557.533 32.3048C558.834 29.174 560.661 26.4525 563.021 24.1406C565.429 21.8287 568.22 20.0465 571.399 18.7942C574.577 17.4938 578.041 16.8435 581.797 16.8435C585.36 16.8435 588.684 17.4215 591.764 18.5775C594.895 19.7335 597.566 21.4915 599.78 23.8516L597.471 26.2358C595.304 24.1165 592.897 22.5993 590.248 21.6842C587.647 20.7208 584.88 20.2392 581.943 20.2392C578.717 20.2392 575.707 20.7931 572.915 21.9009C570.171 23.0087 567.763 24.5741 565.692 26.5971C563.671 28.6199 562.082 30.9801 560.927 33.6773C559.82 36.3748 559.265 39.3127 559.265 42.4917C559.265 45.6707 559.82 48.6086 560.927 51.3061C562.082 54.0033 563.671 56.3635 565.692 58.3863C567.763 60.4094 570.171 61.9748 572.915 63.0825C575.707 64.1902 578.717 64.7443 581.943 64.7443C584.88 64.7443 587.647 64.2866 590.248 63.3715C592.897 62.4082 595.304 60.8428 597.471 58.6753L599.78 61.0597C597.566 63.4197 594.895 65.2017 591.764 66.4058C588.684 67.562 585.36 68.14 581.797 68.14Z" fill="white"></path>
                <path d="M634.676 68.14C630.92 68.14 627.43 67.5138 624.204 66.2615C621.026 64.961 618.234 63.1548 615.827 60.8428C613.467 58.4828 611.636 55.7612 610.339 52.6786C609.038 49.5479 608.388 46.1522 608.388 42.4917C608.388 38.8312 609.038 35.4597 610.339 32.3768C611.636 29.246 613.467 26.5248 615.827 24.2129C618.234 21.8527 621.026 20.0465 624.204 18.7942C627.43 17.4938 630.92 16.8435 634.676 16.8435C638.432 16.8435 641.896 17.4938 645.074 18.7942C648.3 20.0465 651.092 21.8287 653.452 24.1406C655.812 26.4525 657.642 29.174 658.94 32.3048C660.288 35.3873 660.964 38.783 660.964 42.4917C660.964 46.2004 660.288 49.6202 658.94 52.751C657.642 55.8335 655.812 58.531 653.452 60.8428C651.092 63.1548 648.3 64.961 645.074 66.2615C641.896 67.5138 638.432 68.14 634.676 68.14ZM634.676 64.7443C637.902 64.7443 640.887 64.1902 643.631 63.0825C646.375 61.9748 648.757 60.4094 650.781 58.3863C652.802 56.3635 654.366 54.0033 655.476 51.3061C656.63 48.6086 657.208 45.6707 657.208 42.4917C657.208 39.2645 656.63 36.3266 655.476 33.6773C654.366 30.9801 652.802 28.6199 650.781 26.5971C648.757 24.5741 646.375 23.0087 643.631 21.9009C640.887 20.7931 637.902 20.2392 634.676 20.2392C631.45 20.2392 628.465 20.7931 625.721 21.9009C622.977 23.0087 620.569 24.5741 618.498 26.5971C616.477 28.6199 614.888 30.9801 613.733 33.6773C612.623 36.3266 612.071 39.2645 612.071 42.4917C612.071 45.6707 612.623 48.6086 613.733 51.3061C614.888 54.0033 616.477 56.3635 618.498 58.3863C620.569 60.4094 622.977 61.9748 625.721 63.0825C628.465 64.1902 631.45 64.7443 634.676 64.7443Z" fill="white"></path>
                <path d="M675.906 67.7786V17.2047H679.011L715.047 63.2271H713.385V17.2047H717.068V67.7786H714.035L677.926 21.7564H679.588V67.7786H675.906Z" fill="white"></path>
                <path d="M758.34 68.14C754.584 68.14 751.095 67.5138 747.869 66.2615C744.69 64.961 741.899 63.1548 739.491 60.8428C737.131 58.4828 735.301 55.7612 734 52.6786C732.702 49.5479 732.052 46.1522 732.052 42.4917C732.052 38.8312 732.702 35.4597 734 32.3768C735.301 29.246 737.131 26.5248 739.491 24.2129C741.899 21.8527 744.69 20.0465 747.869 18.7942C751.095 17.4938 754.584 16.8435 758.34 16.8435C762.096 16.8435 765.56 17.4938 768.739 18.7942C771.965 20.0465 774.756 21.8287 777.116 24.1406C779.476 26.4525 781.304 29.174 782.604 32.3048C783.952 35.3873 784.628 38.783 784.628 42.4917C784.628 46.2004 783.952 49.6202 782.604 52.751C781.304 55.8335 779.476 58.531 777.116 60.8428C774.756 63.1548 771.965 64.961 768.739 66.2615C765.56 67.5138 762.096 68.14 758.34 68.14ZM758.34 64.7443C761.566 64.7443 764.551 64.1902 767.295 63.0825C770.039 61.9748 772.421 60.4094 774.445 58.3863C776.466 56.3635 778.03 54.0033 779.137 51.3061C780.295 48.6086 780.872 45.6707 780.872 42.4917C780.872 39.2645 780.295 36.3266 779.137 33.6773C778.03 30.9801 776.466 28.6199 774.445 26.5971C772.421 24.5741 770.039 23.0087 767.295 21.9009C764.551 20.7931 761.566 20.2392 758.34 20.2392C755.114 20.2392 752.129 20.7931 749.385 21.9009C746.641 23.0087 744.233 24.5741 742.162 26.5971C740.141 28.6199 738.552 30.9801 737.394 33.6773C736.287 36.3266 735.735 39.2645 735.735 42.4917C735.735 45.6707 736.287 48.6086 737.394 51.3061C738.552 54.0033 740.141 56.3635 742.162 58.3863C744.233 60.4094 746.641 61.9748 749.385 63.0825C752.129 64.1902 755.114 64.7443 758.34 64.7443Z" fill="white"></path>
                <path d="M799.57 67.7786V17.2047H802.673L826.146 57.736H824.484L847.882 17.2047H850.915L850.988 67.7786H847.378L847.305 22.7679H848.317L826.146 61.0596H824.339L802.095 22.7679H803.18V67.7786H799.57Z" fill="white"></path>
                <path d="M882.697 67.7786V49.4276L883.563 51.8117L862.331 17.2047H866.376L885.656 48.6327H883.635L902.919 17.2047H906.745L885.513 51.8117L886.379 49.4276V67.7786H882.697Z" fill="white"></path>
              </svg>